PathFileType	4	(X/Y/Z)	s10c0402.trc
DataRate	CameraRate	NumFrames	NumMarkers	Units	OrigDataRate	OrigDataStartFrame	OrigNumFrames
200	200	4	49	mm	200	750	2000
Frame#	Time	racr			lacr			c7			jug			rlel			rdr			llel			ldr			s2			lic			ric			lasi			rasi			rpsi			lpsi			rgt			lgt			rth1			rth2			rth3			rth4			rlfc			rmfc			rsh1			rsh2			rsh3			rsh4			rlmal			rmmal			rcal			rtoe			rmt5			lth1			lth2			lth4			lth3			llfc			lmfc			llmal			lcal			lmt5			lsh1			lsh2			lsh3			lsh4			ltoe			SBIKE			LBIKE			RBIKE			
		X1	Y1	Z1	X2	Y2	Z2	X3	Y3	Z3	X4	Y4	Z4	X5	Y5	Z5	X6	Y6	Z6	X7	Y7	Z7	X8	Y8	Z8	X9	Y9	Z9	X10	Y10	Z10	X11	Y11	Z11	X12	Y12	Z12	X13	Y13	Z13	X14	Y14	Z14	X15	Y15	Z15	X16	Y16	Z16	X17	Y17	Z17	X18	Y18	Z18	X19	Y19	Z19	X20	Y20	Z20	X21	Y21	Z21	X22	Y22	Z22	X23	Y23	Z23	X24	Y24	Z24	X25	Y25	Z25	X26	Y26	Z26	X27	Y27	Z27	X28	Y28	Z28	X29	Y29	Z29	X30	Y30	Z30	X31	Y31	Z31	X32	Y32	Z32	X33	Y33	Z33	X34	Y34	Z34	X35	Y35	Z35	X36	Y36	Z36	X37	Y37	Z37	X38	Y38	Z38	X39	Y39	Z39	X40	Y40	Z40	X41	Y41	Z41	X42	Y42	Z42	X43	Y43	Z43	X44	Y44	Z44	X45	Y45	Z45	X46	Y46	Z46	X47	Y47	Z47	X48	Y48	Z48	X49	Y49	Z49	
750	3.7500	590.475867	1353.150225	-69.776241	663.439498	1287.832803	-370.301600	609.278112	1352.313420	-231.873722	597.091814	1204.942940	-203.891379	513.411688	1094.849937	13.216193	620.796284	913.692102	-43.889563	512.180698	1077.962020	-509.463095	617.973476	910.039460	-430.002877	88.718926	1125.559775	-263.242349	258.857159	1118.209103	-414.269448	259.067772	1164.491247	-128.077577	283.544148	1033.340696	-374.622301	261.103888	1071.229807	-125.207628	128.439640	1187.633835	-215.030154	141.396297	1180.067822	-325.040718	160.776437	1050.154166	-60.463590	153.922022	985.731952	-435.534512	249.777788	943.624457	-30.209440	325.740992	897.327508	-38.238042	367.084408	822.557580	-31.881287	350.517001	922.117131	-52.206306	426.840803	734.844182	-40.236033	411.966079	716.960327	-156.279806	317.940118	694.259364	-11.047245	253.126425	635.675544	-29.141854	169.303443	616.819240	-36.340993	269.503162	613.060668	-55.143261	73.549565	573.232376	-56.320012	104.029091	564.175792	-134.604187	31.255562	605.142304	-105.454047	136.646874	384.913343	-103.515353	74.873171	444.217688	-42.151023	207.256000	865.615102	-441.185384	261.905157	802.263136	-418.571952	293.976120	819.412748	-412.010315	276.421147	716.977590	-399.308782	331.623039	623.851153	-371.108887	320.394018	623.951570	-262.229102	169.689871	279.988880	-383.183523	109.254084	253.193622	-343.137085	274.423786	185.968708	-403.535740	265.870157	518.973950	-409.575686	260.481465	433.149068	-392.751946	213.547951	359.180527	-395.116877	284.698163	428.683951	-363.692978	359.286943	204.952893	-345.850484	-180.707852	823.045033	-211.083272	-103.960663	80.359757	-418.397302	-103.910117	80.425775	-18.393328	
751	3.7550	591.014819	1353.542922	-68.709918	660.920759	1289.777551	-369.829769	608.459869	1352.316632	-231.289971	596.935456	1204.836408	-202.889040	513.225907	1094.991185	14.440136	620.653842	913.718647	-43.891060	510.948693	1078.081980	-508.101702	617.869053	909.873204	-430.478052	88.852132	1124.313586	-268.037526	261.534748	1116.243203	-414.446571	257.094979	1162.783444	-127.251155	285.683001	1031.483658	-373.511506	259.236354	1069.568853	-124.313149	127.584707	1185.195878	-216.850033	142.403564	1177.645504	-327.390248	156.567370	1048.607385	-62.607203	156.702642	983.914315	-437.005353	248.919408	944.543108	-31.235283	326.339159	900.825520	-37.124410	370.034047	827.575643	-30.395687	350.729980	926.877551	-50.286489	432.917457	741.520263	-38.483913	419.675219	723.123182	-154.674519	324.218464	700.693595	-10.123840	259.512928	642.025707	-28.359163	175.734216	623.269162	-36.102061	276.114732	619.339739	-54.108216	80.584850	579.369561	-56.326887	111.247422	570.260843	-134.709509	38.543024	611.236519	-105.461063	143.905554	390.959076	-103.690944	82.176286	450.284275	-42.380658	206.953123	863.510531	-441.839157	259.490522	798.776626	-418.761911	291.899353	814.932894	-411.570553	271.593313	712.864088	-399.720844	323.631910	617.520932	-370.677189	310.097424	617.423800	-261.904787	163.049443	274.220106	-383.471365	102.680242	247.966720	-343.676748	267.590312	179.824101	-403.326090	258.130368	512.465785	-409.685564	253.206687	426.828782	-392.390864	207.010019	352.454546	-395.021008	277.257983	422.677687	-363.218997	352.478864	198.382971	-345.528389	-180.737645	823.046193	-211.121168	-104.003658	80.274755	-418.493214	-103.928782	80.472767	-18.399577	
752	3.7600	591.866036	1353.925888	-67.518231	658.368502	1292.014317	-369.540637	607.698700	1352.308427	-230.802629	596.831995	1204.842795	-201.961849	513.330593	1095.042912	15.879068	620.565837	913.728074	-43.863327	509.694039	1078.327034	-506.939680	617.792070	909.694975	-430.956461	88.414518	1121.267587	-269.936813	264.339065	1114.235023	-414.485388	255.334599	1161.128209	-126.095378	287.738732	1029.725126	-372.211231	257.500668	1067.888579	-123.352573	126.763727	1182.955350	-219.229166	143.915961	1175.458621	-330.018376	152.361681	1047.139141	-64.812968	159.645563	982.406356	-439.052370	247.794743	945.325270	-31.712957	326.668496	904.440948	-36.091797	372.741737	832.684935	-28.801294	350.342935	931.243784	-49.021534	438.834511	748.625930	-36.630365	427.138016	729.597832	-153.346738	330.327017	707.191366	-9.199827	265.988739	648.465081	-27.602209	182.266056	629.376097	-35.891931	282.811411	625.588832	-53.133650	87.906067	584.944869	-56.444260	118.752898	576.096901	-134.938854	45.910596	616.948015	-105.668144	152.284296	396.991381	-103.513866	89.781332	455.984042	-42.600284	206.703510	861.674108	-442.524416	257.410534	795.209475	-418.975449	289.894686	810.721266	-411.138056	266.900981	709.161311	-400.164722	315.423058	611.716717	-370.529617	299.254605	611.200210	-262.024702	156.150775	268.752179	-383.824148	95.807984	243.156865	-344.242083	260.521009	174.072473	-403.114805	250.030868	506.772517	-410.209747	245.526107	421.052626	-392.391538	200.012928	346.488033	-395.227781	269.683746	417.014458	-362.729949	345.317025	192.059750	-344.964260	-180.749805	822.993903	-211.287286	-103.962001	80.352563	-418.416001	-103.932342	80.459098	-18.403620	
753	3.7650	593.027278	1354.142536	-66.344994	655.704527	1294.307227	-369.559058	607.030851	1352.280853	-230.416933	597.350839	1205.511511	-199.250546	513.532009	1095.067587	17.332927	620.617003	913.798992	-43.655236	508.492285	1078.769313	-505.942874	617.653531	909.518791	-431.253891	89.410530	1119.894512	-274.634449	267.278046	1112.415198	-414.332977	253.149124	1159.400997	-125.268963	289.851205	1028.032948	-370.812952	254.658689	1066.381610	-122.746013	125.867437	1180.828040	-221.513423	145.405669	1173.265622	-332.383799	148.080548	1045.885598	-67.024926	162.533377	980.734622	-440.552382	246.216849	946.197063	-31.856675	326.843165	908.279614	-34.610628	375.229252	837.829556	-27.172190	349.776621	935.628152	-47.410985	444.586470	756.226701	-34.666501	434.410279	736.840235	-151.907008	336.533904	714.069993	-7.895701	272.477657	654.716652	-26.825836	189.019959	635.229315	-35.737148	289.641559	631.939742	-52.193665	95.431527	590.436730	-56.469983	125.655915	581.219174	-135.790450	53.565739	622.079817	-105.774033	161.108527	403.163973	-103.099426	97.672933	461.375775	-42.949755	206.465253	860.093732	-443.208287	255.238177	792.222728	-419.316138	287.256377	807.317866	-411.467848	262.263131	705.843155	-400.692206	307.010714	606.632125	-370.681055	288.548175	605.049102	-262.439327	149.012381	263.687948	-384.326775	88.638356	238.826310	-344.881815	253.133737	168.598489	-402.933725	241.548658	502.115763	-411.101124	237.557918	416.453120	-393.026608	192.658717	341.514676	-395.665926	261.705455	412.639557	-363.213743	337.858030	186.236310	-344.525483	-180.816676	822.968190	-211.407027	-103.982412	80.282176	-418.501388	-103.928179	80.462338	-18.401810	
